<?xml version="1.0" encoding="utf-8"?>
<!-- Generator: Adobe Illustrator 22.1.0, SVG Export Plug-In . SVG Version: 6.00 Build 0)  -->
<svg version="1.1" id="Layer_1" xmlns="http://www.w3.org/2000/svg" xmlns:xlink="http://www.w3.org/1999/xlink" x="0px" y="0px"
	 viewBox="0 0 626.9 58.4" style="enable-background:new 0 0 626.9 58.4;" xml:space="preserve">
<style type="text/css">
	.st0{fill:none;}
	.st1{fill:#006999;}
	.st2{fill:#22B0CF;}
	.st3{fill:#A2CCED;}
	.st4{fill:#C0DEF4;}
	.st5{fill:#D6E9F8;}
	.st6{fill:#F3F9FD;}
	.st7{fill:#FFFFFF;}
	.st8{fill:#113C62;}
	.st9{fill:#2A8DB4;}
	.st10{fill:#19A3C5;}
	.st11{fill:none;stroke:#000000;stroke-width:1.7873;stroke-miterlimit:10;}
	.st12{fill:none;stroke:#000000;stroke-width:0.75;stroke-miterlimit:10;}
	.st13{fill:none;stroke:#006999;stroke-miterlimit:10;}
	.st14{fill:none;stroke:#006999;stroke-width:0.7233;stroke-miterlimit:10;}
	.st15{fill:none;stroke:#22B0CF;stroke-miterlimit:10;}
	.st16{fill:none;stroke:#006999;stroke-width:0.73;stroke-miterlimit:10;}
	.st17{fill:none;stroke:#006999;stroke-width:0.4;stroke-miterlimit:10;}
	.st18{fill:none;stroke:#006999;stroke-width:1.7728;stroke-miterlimit:10;}
	.st19{fill:none;stroke:#006999;stroke-width:1.7728;stroke-miterlimit:10;stroke-dasharray:4.7389,4.7389;}
	.st20{fill:none;stroke:#006999;stroke-width:0.8846;stroke-miterlimit:10;}
	.st21{fill:none;stroke:#006999;stroke-width:0.8846;stroke-miterlimit:10;stroke-dasharray:2.3647,2.3647;}
	.st22{fill:none;stroke:#FFFFFF;stroke-width:29.3733;stroke-miterlimit:10;}
	.st23{fill:none;stroke:#FFFFFF;stroke-width:29.3733;stroke-miterlimit:10;stroke-dasharray:78.518,78.518;}
	.st24{fill:none;stroke:#006999;stroke-width:29.3733;stroke-miterlimit:10;}
	.st25{fill:none;stroke:#006999;stroke-width:29.3733;stroke-miterlimit:10;stroke-dasharray:78.518,78.518;}
	.st26{fill:none;stroke:#006999;stroke-width:2.3423;stroke-miterlimit:10;}
	.st27{fill:none;stroke:#22B0CF;stroke-width:1.8578;stroke-miterlimit:10;}
	.st28{fill:none;stroke:#006999;stroke-width:1.7836;stroke-miterlimit:10;}
	.st29{fill:none;stroke:#22B0CF;stroke-width:1.4146;stroke-miterlimit:10;}
	.st30{fill:none;stroke:#000000;stroke-width:1.7836;stroke-miterlimit:10;}
	.st31{fill:none;stroke:#000000;stroke-width:1.4146;stroke-miterlimit:10;}
	.st32{fill:none;stroke:#0E3557;stroke-width:36.5654;stroke-miterlimit:10;}
	.st33{fill:#0D3557;}
	.st34{fill:none;stroke:#22B0CF;stroke-width:29.373;stroke-miterlimit:10;}
	.st35{fill:none;stroke:#FFFFFF;stroke-width:29.373;stroke-miterlimit:10;}
	.st36{fill:#00699A;}
	.st37{fill:none;stroke:#006999;stroke-width:1.8121;stroke-miterlimit:10;}
	.st38{fill:none;stroke:#22B0CF;stroke-width:1.4372;stroke-miterlimit:10;}
	.st39{fill:none;stroke:#000000;stroke-width:1.8121;stroke-miterlimit:10;}
	.st40{fill:none;stroke:#000000;stroke-width:1.4372;stroke-miterlimit:10;}
	.st41{fill:none;stroke:#FFFFFF;stroke-width:1.8121;stroke-miterlimit:10;}
	.st42{fill:none;stroke:#FFFFFF;stroke-width:1.4372;stroke-miterlimit:10;}
	.st43{fill:#103356;}
	.st44{fill:none;stroke:#103356;stroke-width:1.8121;stroke-miterlimit:10;}
	.st45{fill:none;stroke:#103356;stroke-width:1.4372;stroke-miterlimit:10;}
	.st46{fill:none;stroke:#006999;stroke-width:5.5874;stroke-miterlimit:10;}
	.st47{fill:none;stroke:#22B0CF;stroke-width:4.4316;stroke-miterlimit:10;}
	.st48{fill:none;stroke:#FFFFFF;stroke-width:5.5874;stroke-miterlimit:10;}
	.st49{fill:none;stroke:#FFFFFF;stroke-width:4.4316;stroke-miterlimit:10;}
	.st50{fill:none;stroke:#006999;stroke-width:11.3711;stroke-miterlimit:10;}
	.st51{fill:none;stroke:#22B0CF;stroke-width:9.019;stroke-miterlimit:10;}
	.st52{fill:none;stroke:#000000;stroke-width:1.8018;stroke-miterlimit:10;}
	.st53{fill:none;stroke:#000000;stroke-width:1.4291;stroke-miterlimit:10;}
	.st54{fill:none;stroke:#006999;stroke-width:3.8099;stroke-miterlimit:10;}
	.st55{fill:none;stroke:#22B0CF;stroke-width:3.0218;stroke-miterlimit:10;}
	.st56{fill:none;stroke:#006999;stroke-width:1.7965;stroke-miterlimit:10;}
	.st57{fill:none;stroke:#22B0CF;stroke-width:1.4347;stroke-miterlimit:10;}
	.st58{fill:#006999;stroke:#006999;stroke-width:6;stroke-miterlimit:10;}
</style>
<g>
	<path class="st2" d="M51.4,18.5c0.5,0.5,0.8,1.3,0.8,2.2c0,0.8-0.1,1.5-0.4,2.1L41,55.3c-0.2,0.7-0.7,1.3-1.3,1.7
		c-0.6,0.5-1.3,0.7-2.1,0.7c-0.8,0-1.6-0.2-2.2-0.7c-0.7-0.5-1.1-1-1.3-1.7l-7.2-26.5l-7.5,26.5C19.1,56,18.6,56.5,18,57
		c-0.7,0.5-1.4,0.7-2.2,0.7c-0.8,0-1.5-0.2-2.2-0.7c-0.7-0.5-1.1-1-1.4-1.7L1.5,22.8c-0.2-0.6-0.3-1.3-0.3-2c0-2,1-3.1,3.1-3.1
		c0.9,0,1.7,0.3,2.3,0.8C7.2,19,7.7,19.9,8,21.1l7.9,24.6l7.5-25.2c0.2-0.8,0.7-1.5,1.3-2c0.6-0.5,1.4-0.8,2.4-0.8
		c0.9,0,1.7,0.3,2.3,0.8c0.6,0.5,1,1.2,1.3,2l6.6,25.7l8-25.2c0.7-2.2,2-3.4,3.8-3.4C50.1,17.7,50.9,18,51.4,18.5z"/>
	<path class="st2" d="M91.3,19.5c2.7,1.5,4.8,3.6,6.3,6.4c1.5,2.8,2.3,6.2,2.3,10.1v18c0,1.1-0.4,2-1.1,2.7
		c-0.7,0.7-1.6,1.1-2.7,1.1c-1.1,0-2-0.4-2.7-1.1c-0.7-0.7-1.1-1.6-1.1-2.7v-18c0-3.9-1.1-6.9-3.2-9c-2.1-2-4.9-3-8.4-3
		c-2,0-3.9,0.4-5.6,1.2c-1.7,0.8-3,2-3.9,3.4c-1,1.4-1.4,3-1.4,4.8V54c0,1.1-0.3,2-1,2.7c-0.7,0.7-1.6,1.1-2.7,1.1
		c-1.1,0-2-0.4-2.7-1.1c-0.7-0.7-1.1-1.6-1.1-2.7V4.3c0-1.1,0.4-2,1.1-2.7c0.7-0.7,1.6-1,2.7-1c1.1,0,2,0.3,2.7,1
		c0.7,0.7,1,1.6,1,2.7v17.9c1.6-1.6,3.4-2.8,5.6-3.6c2.1-0.9,4.4-1.3,6.9-1.3C85.6,17.3,88.7,18.1,91.3,19.5z"/>
	<path class="st2" d="M140.7,20.1c3,1.8,5.5,4.2,7.2,7.3c1.8,3.1,2.7,6.5,2.7,10.3V54c0,1.1-0.4,2-1.1,2.7c-0.7,0.7-1.6,1.1-2.7,1.1
		c-1.1,0-2-0.4-2.7-1.1c-0.7-0.7-1.1-1.6-1.1-2.7v-2.7c-1.7,2.1-3.8,3.7-6.2,4.9c-2.4,1.2-5.1,1.8-7.9,1.8c-3.5,0-6.7-0.9-9.5-2.6
		c-2.9-1.8-5.1-4.2-6.7-7.3c-1.6-3.1-2.5-6.5-2.5-10.3c0-3.8,0.9-7.3,2.6-10.3c1.8-3.1,4.2-5.5,7.3-7.3c3.1-1.8,6.5-2.7,10.3-2.7
		C134.2,17.4,137.6,18.3,140.7,20.1z M137.1,49.6c2-1.2,3.5-2.8,4.6-4.9c1.1-2.1,1.7-4.4,1.7-7c0-2.6-0.6-4.9-1.7-7
		c-1.1-2.1-2.7-3.7-4.6-4.9c-2-1.2-4.2-1.8-6.6-1.8c-2.4,0-4.6,0.6-6.6,1.8c-2,1.2-3.5,2.8-4.7,4.9c-1.1,2.1-1.7,4.4-1.7,7
		c0,2.6,0.6,4.9,1.7,7c1.1,2.1,2.7,3.7,4.7,4.9c2,1.2,4.2,1.8,6.6,1.8C132.9,51.4,135.1,50.8,137.1,49.6z"/>
	<path class="st2" d="M167.4,56c-1.7-1.1-3-2.8-3.9-4.8c-0.9-2.1-1.4-4.4-1.4-7V4.2c0-1.1,0.3-1.9,1-2.6c0.7-0.7,1.6-1,2.6-1
		s2,0.3,2.6,1c0.7,0.7,1,1.6,1,2.6v39.9c0,1.8,0.3,3.3,1,4.5s1.6,1.8,2.6,1.8h1.8c1,0,1.8,0.3,2.4,1c0.6,0.7,0.9,1.6,0.9,2.6
		s-0.5,2-1.4,2.6s-2.1,1-3.6,1H173C170.9,57.7,169,57.1,167.4,56z"/>
	<path class="st2" d="M220.1,39.4c-0.6,0.6-1.4,0.9-2.4,0.9h-27.8c0.5,3.4,2.1,6.2,4.6,8.3c2.6,2.1,5.7,3.1,9.4,3.1
		c1.5,0,3-0.3,4.6-0.8c1.6-0.5,2.9-1.2,3.9-2c0.7-0.5,1.5-0.8,2.4-0.8c0.9,0,1.7,0.2,2.2,0.7c0.9,0.7,1.3,1.6,1.3,2.5
		c0,0.9-0.4,1.6-1.2,2.2c-1.7,1.3-3.7,2.4-6.2,3.2c-2.5,0.8-4.8,1.2-7.1,1.2c-4,0-7.6-0.9-10.8-2.6c-3.2-1.7-5.6-4.1-7.4-7.2
		c-1.8-3.1-2.7-6.6-2.7-10.5c0-3.9,0.8-7.4,2.5-10.5c1.7-3.1,4-5.5,7-7.2c3-1.7,6.4-2.6,10.2-2.6c3.8,0,7,0.8,9.7,2.5
		c2.7,1.7,4.8,4,6.3,6.9c1.5,3,2.2,6.4,2.2,10.2C221,38,220.7,38.8,220.1,39.4z M194.1,26.6c-2.2,2-3.6,4.6-4.2,7.8h24.4
		c-0.4-3.3-1.7-5.9-3.7-7.8c-2-1.9-4.6-2.9-7.8-2.9C199.2,23.7,196.3,24.7,194.1,26.6z"/>
	<path class="st1" d="M271.4,1.6c0.7,0.7,1,1.6,1,2.7v33.3c0,3.8-0.9,7.3-2.7,10.3c-1.8,3.1-4.2,5.5-7.2,7.3
		c-3,1.8-6.4,2.7-10.2,2.7c-3.8,0-7.2-0.9-10.3-2.7c-3.1-1.8-5.5-4.2-7.3-7.3c-1.8-3.1-2.6-6.5-2.6-10.3c0-3.8,0.8-7.3,2.5-10.3
		c1.6-3.1,3.9-5.5,6.7-7.3c2.9-1.8,6-2.6,9.5-2.6c2.8,0,5.5,0.6,7.9,1.8c2.4,1.2,4.5,2.8,6.2,4.9V4.3c0-1.1,0.4-2,1.1-2.7
		c0.7-0.7,1.6-1,2.7-1C269.8,0.6,270.7,0.9,271.4,1.6z M258.9,49.6c2-1.2,3.5-2.8,4.6-4.9c1.1-2.1,1.7-4.4,1.7-7
		c0-2.6-0.6-4.9-1.7-7c-1.1-2.1-2.7-3.7-4.6-4.9c-2-1.2-4.2-1.8-6.6-1.8c-2.4,0-4.6,0.6-6.6,1.8c-2,1.2-3.5,2.8-4.7,4.9
		c-1.1,2.1-1.7,4.4-1.7,7c0,2.6,0.6,4.9,1.7,7c1.1,2.1,2.7,3.7,4.7,4.9c2,1.2,4.2,1.8,6.6,1.8C254.7,51.4,256.9,50.8,258.9,49.6z"/>
	<path class="st1" d="M320.5,39.4c-0.6,0.6-1.4,0.9-2.4,0.9h-27.8c0.5,3.4,2.1,6.2,4.6,8.3c2.6,2.1,5.7,3.1,9.4,3.1
		c1.5,0,3-0.3,4.6-0.8c1.6-0.5,2.9-1.2,3.9-2c0.7-0.5,1.5-0.8,2.4-0.8c0.9,0,1.7,0.2,2.2,0.7c0.9,0.7,1.3,1.6,1.3,2.5
		c0,0.9-0.4,1.6-1.2,2.2c-1.7,1.3-3.7,2.4-6.2,3.2c-2.5,0.8-4.8,1.2-7.1,1.2c-4,0-7.6-0.9-10.8-2.6c-3.2-1.7-5.6-4.1-7.4-7.2
		c-1.8-3.1-2.7-6.6-2.7-10.5c0-3.9,0.8-7.4,2.5-10.5c1.7-3.1,4-5.5,7-7.2c3-1.7,6.4-2.6,10.2-2.6c3.8,0,7,0.8,9.7,2.5
		c2.7,1.7,4.8,4,6.3,6.9c1.5,3,2.2,6.4,2.2,10.2C321.5,38,321.2,38.8,320.5,39.4z M294.6,26.6c-2.2,2-3.6,4.6-4.2,7.8h24.4
		c-0.4-3.3-1.7-5.9-3.7-7.8c-2-1.9-4.6-2.9-7.8-2.9C299.7,23.7,296.8,24.7,294.6,26.6z"/>
	<path class="st1" d="M347.2,10c-1.7,1.8-2.5,4.2-2.5,7.2v2h7.5c1,0,1.9,0.3,2.5,0.9c0.6,0.6,1,1.4,1,2.3c0,0.9-0.3,1.6-1,2.2
		c-0.6,0.6-1.5,0.9-2.5,0.9h-7.5V54c0,1.1-0.3,2-1,2.7c-0.7,0.7-1.6,1-2.9,1c-1,0-1.8-0.3-2.5-1c-0.7-0.7-1.1-1.6-1.1-2.7V25.5h-3.1
		c-1,0-1.9-0.3-2.5-0.9s-1-1.3-1-2.2c0-1,0.3-1.8,1-2.3s1.5-0.9,2.5-0.9h3.1v-1.2c0-3.5,0.7-6.5,2.1-9.1c1.4-2.6,3.3-4.6,5.9-6.1
		c2.5-1.4,5.4-2.2,8.6-2.2c1.1,0,2,0.3,2.7,1c0.7,0.6,1.1,1.4,1.1,2.4c0,1-0.4,1.8-1.1,2.4c-0.7,0.6-1.6,1-2.7,1
		C351,7.3,348.8,8.2,347.2,10z"/>
	<path class="st1" d="M400.1,39.4c-0.6,0.6-1.4,0.9-2.4,0.9h-27.8c0.5,3.4,2.1,6.2,4.6,8.3c2.6,2.1,5.7,3.1,9.4,3.1
		c1.5,0,3-0.3,4.6-0.8c1.6-0.5,2.9-1.2,3.9-2c0.7-0.5,1.5-0.8,2.4-0.8c0.9,0,1.7,0.2,2.2,0.7c0.9,0.7,1.3,1.6,1.3,2.5
		c0,0.9-0.4,1.6-1.2,2.2c-1.7,1.3-3.7,2.4-6.2,3.2c-2.5,0.8-4.8,1.2-7.1,1.2c-4,0-7.6-0.9-10.8-2.6c-3.2-1.7-5.6-4.1-7.4-7.2
		c-1.8-3.1-2.7-6.6-2.7-10.5c0-3.9,0.8-7.4,2.5-10.5c1.7-3.1,4-5.5,7-7.2c3-1.7,6.4-2.6,10.2-2.6c3.8,0,7,0.8,9.7,2.5
		c2.7,1.7,4.8,4,6.3,6.9c1.5,3,2.2,6.4,2.2,10.2C401.1,38,400.7,38.8,400.1,39.4z M374.2,26.6c-2.2,2-3.6,4.6-4.2,7.8h24.4
		c-0.4-3.3-1.7-5.9-3.7-7.8c-2-1.9-4.6-2.9-7.8-2.9C379.3,23.7,376.4,24.7,374.2,26.6z"/>
	<path class="st1" d="M441.3,19.5c2.7,1.5,4.8,3.6,6.3,6.4c1.5,2.8,2.3,6.2,2.3,10.1v18c0,1.1-0.4,2-1.1,2.7
		c-0.7,0.7-1.6,1.1-2.7,1.1c-1.1,0-2-0.4-2.7-1.1c-0.7-0.7-1.1-1.6-1.1-2.7v-18c0-3.9-1.1-6.9-3.2-9c-2.1-2-4.9-3-8.4-3
		c-2,0-3.9,0.4-5.6,1.2c-1.7,0.8-3,2-3.9,3.4c-1,1.4-1.4,3-1.4,4.8V54c0,1.1-0.3,2-1,2.7c-0.7,0.7-1.6,1.1-2.7,1.1
		c-1.1,0-2-0.4-2.7-1.1c-0.7-0.7-1.1-1.6-1.1-2.7V21.4c0-1.1,0.4-2,1.1-2.7c0.7-0.7,1.6-1,2.7-1c1.1,0,2,0.3,2.7,1
		c0.7,0.7,1,1.6,1,2.7v0.8c1.6-1.6,3.4-2.8,5.6-3.6c2.1-0.9,4.4-1.3,6.9-1.3C435.6,17.3,438.7,18.1,441.3,19.5z"/>
	<path class="st1" d="M499.5,1.6c0.7,0.7,1,1.6,1,2.7v33.3c0,3.8-0.9,7.3-2.7,10.3c-1.8,3.1-4.2,5.5-7.2,7.3
		c-3,1.8-6.4,2.7-10.2,2.7c-3.8,0-7.2-0.9-10.3-2.7c-3.1-1.8-5.5-4.2-7.3-7.3c-1.8-3.1-2.6-6.5-2.6-10.3c0-3.8,0.8-7.3,2.5-10.3
		c1.6-3.1,3.9-5.5,6.7-7.3c2.9-1.8,6-2.6,9.5-2.6c2.8,0,5.5,0.6,7.9,1.8c2.4,1.2,4.5,2.8,6.2,4.9V4.3c0-1.1,0.4-2,1.1-2.7
		c0.7-0.7,1.6-1,2.7-1C497.9,0.6,498.8,0.9,499.5,1.6z M487,49.6c2-1.2,3.5-2.8,4.6-4.9c1.1-2.1,1.7-4.4,1.7-7c0-2.6-0.6-4.9-1.7-7
		c-1.1-2.1-2.7-3.7-4.6-4.9c-2-1.2-4.2-1.8-6.6-1.8c-2.4,0-4.6,0.6-6.6,1.8c-2,1.2-3.5,2.8-4.7,4.9c-1.1,2.1-1.7,4.4-1.7,7
		c0,2.6,0.6,4.9,1.7,7c1.1,2.1,2.7,3.7,4.7,4.9c2,1.2,4.2,1.8,6.6,1.8C482.8,51.4,485,50.8,487,49.6z"/>
	<path class="st1" d="M548.3,39.4c-0.6,0.6-1.4,0.9-2.4,0.9h-27.8c0.5,3.4,2.1,6.2,4.6,8.3c2.6,2.1,5.7,3.1,9.4,3.1
		c1.5,0,3-0.3,4.6-0.8c1.6-0.5,2.9-1.2,3.9-2c0.7-0.5,1.5-0.8,2.4-0.8c0.9,0,1.7,0.2,2.2,0.7c0.9,0.7,1.3,1.6,1.3,2.5
		c0,0.9-0.4,1.6-1.2,2.2c-1.7,1.3-3.7,2.4-6.2,3.2c-2.5,0.8-4.8,1.2-7.1,1.2c-4,0-7.6-0.9-10.8-2.6c-3.2-1.7-5.6-4.1-7.4-7.2
		c-1.8-3.1-2.7-6.6-2.7-10.5c0-3.9,0.8-7.4,2.5-10.5c1.7-3.1,4-5.5,7-7.2c3-1.7,6.4-2.6,10.2-2.6c3.8,0,7,0.8,9.7,2.5
		c2.7,1.7,4.8,4,6.3,6.9c1.5,3,2.2,6.4,2.2,10.2C549.2,38,548.9,38.8,548.3,39.4z M522.3,26.6c-2.2,2-3.6,4.6-4.2,7.8h24.4
		c-0.4-3.3-1.7-5.9-3.7-7.8c-2-1.9-4.6-2.9-7.8-2.9C527.4,23.7,524.6,24.7,522.3,26.6z"/>
	<path class="st1" d="M586.6,18.4c1.5,0.8,2.2,1.8,2.2,2.9c0,0.3,0,0.6-0.1,0.7c-0.4,1.6-1.4,2.3-2.9,2.3c-0.2,0-0.6,0-1.1-0.1
		c-2-0.3-3.5-0.5-4.8-0.5c-3.5,0-6.3,0.8-8.5,2.4c-2.1,1.6-3.2,3.8-3.2,6.5V54c0,1.2-0.3,2.1-0.9,2.7c-0.6,0.6-1.5,1-2.7,1
		c-1.2,0-2.1-0.3-2.7-0.9c-0.6-0.6-1-1.5-1-2.7V21.4c0-1.2,0.3-2.1,1-2.7c0.6-0.6,1.5-1,2.7-1c2.4,0,3.7,1.2,3.7,3.7v1.4
		c1.5-1.7,3.3-3,5.4-4c2.1-1,4.4-1.5,6.9-1.5C583.1,17.3,585.1,17.7,586.6,18.4z"/>
	<path class="st1" d="M601.6,56.5c-2.9-1-5.2-2.4-6.9-4c-0.6-0.6-1-1.4-1-2.3c0-1.2,0.5-2.1,1.5-2.9c0.9-0.7,1.8-1,2.6-1
		c1,0,1.9,0.4,2.8,1.3c0.9,1,2.3,1.9,4.2,2.7c1.9,0.8,3.8,1.1,5.9,1.1c2.8,0,4.9-0.5,6.5-1.4c1.5-0.9,2.3-2.2,2.3-3.7
		c0-1.5-0.8-2.8-2.3-3.8c-1.5-1-4.1-1.8-7.7-2.5c-9.4-1.8-14-5.7-14-11.6c0-2.4,0.7-4.4,2.1-6.1c1.4-1.7,3.3-2.9,5.6-3.7
		c2.3-0.8,4.7-1.2,7.3-1.2c3.2,0,6,0.5,8.5,1.5c2.5,1,4.5,2.4,6,4.2c0.6,0.8,1,1.6,1,2.3c0,0.8-0.4,1.6-1.2,2.3
		c-0.5,0.4-1.2,0.6-2,0.6c-1.3,0-2.4-0.5-3.4-1.4c-1.2-1.1-2.5-1.9-3.9-2.4c-1.4-0.5-3-0.7-5-0.7c-2.2,0-4.1,0.4-5.5,1.1
		c-1.4,0.8-2.2,1.8-2.2,3.2c0,1,0.2,1.8,0.7,2.4s1.4,1.3,2.8,1.8c1.4,0.6,3.3,1.1,5.9,1.6c5.3,1.1,9.1,2.6,11.3,4.5
		c2.2,1.9,3.3,4.4,3.3,7.4c0,2.2-0.6,4.3-1.8,6.1c-1.2,1.8-3,3.3-5.4,4.3c-2.4,1-5.2,1.6-8.5,1.6S604.6,57.5,601.6,56.5z"/>
</g>
</svg>
